<mxfile host="app.diagrams.net" modified="2022-06-20T16:50:37.494Z" agent="5.0 (Windows NT 10.0; Win64; x64) AppleWebKit/537.36 (KHTML, like Gecko) Chrome/102.0.0.0 Safari/537.36" etag="a46QOFkDCv9Oa-cbL04D" version="20.0.1" type="github">
  <diagram id="LPlG0qXmIRz5JVGf_PqN" name="PÃ¡gina-1">
    <mxGraphModel dx="896" dy="752" grid="1" gridSize="10" guides="1" tooltips="1" connect="1" arrows="1" fold="1" page="1" pageScale="1" pageWidth="827" pageHeight="1169" math="0" shadow="0">
      <root>
        <mxCell id="0" />
        <mxCell id="1" parent="0" />
        <mxCell id="TAEGh7wm9ALzpoJDGOAz-1" value="Cliente" style="swimlane;fontStyle=1;align=center;verticalAlign=top;childLayout=stackLayout;horizontal=1;startSize=26;horizontalStack=0;resizeParent=1;resizeParentMax=0;resizeLast=0;collapsible=1;marginBottom=0;" parent="1" vertex="1">
          <mxGeometry x="50" y="80" width="210" height="230" as="geometry" />
        </mxCell>
        <mxCell id="TAEGh7wm9ALzpoJDGOAz-2" value="- nombre: String&#xa;- apellido: String&#xa;- CBU: String&#xa;- email: String" style="text;strokeColor=none;fillColor=none;align=left;verticalAlign=top;spacingLeft=4;spacingRight=4;overflow=hidden;rotatable=0;points=[[0,0.5],[1,0.5]];portConstraint=eastwest;" parent="TAEGh7wm9ALzpoJDGOAz-1" vertex="1">
          <mxGeometry y="26" width="210" height="124" as="geometry" />
        </mxCell>
        <mxCell id="TAEGh7wm9ALzpoJDGOAz-3" value="" style="line;strokeWidth=1;fillColor=none;align=left;verticalAlign=middle;spacingTop=-1;spacingLeft=3;spacingRight=3;rotatable=0;labelPosition=right;points=[];portConstraint=eastwest;" parent="TAEGh7wm9ALzpoJDGOAz-1" vertex="1">
          <mxGeometry y="150" width="210" height="8" as="geometry" />
        </mxCell>
        <mxCell id="TAEGh7wm9ALzpoJDGOAz-4" value="+ getCBU(): String&#xa;+ getEmail(): String" style="text;strokeColor=none;fillColor=none;align=left;verticalAlign=top;spacingLeft=4;spacingRight=4;overflow=hidden;rotatable=0;points=[[0,0.5],[1,0.5]];portConstraint=eastwest;" parent="TAEGh7wm9ALzpoJDGOAz-1" vertex="1">
          <mxGeometry y="158" width="210" height="72" as="geometry" />
        </mxCell>
        <mxCell id="TAEGh7wm9ALzpoJDGOAz-5" value="Pedido" style="swimlane;fontStyle=1;align=center;verticalAlign=top;childLayout=stackLayout;horizontal=1;startSize=26;horizontalStack=0;resizeParent=1;resizeParentMax=0;resizeLast=0;collapsible=1;marginBottom=0;" parent="1" vertex="1">
          <mxGeometry x="414" y="80" width="240" height="220" as="geometry" />
        </mxCell>
        <mxCell id="TAEGh7wm9ALzpoJDGOAz-6" value="+ monto(): real&#xa;" style="text;strokeColor=none;fillColor=none;align=left;verticalAlign=top;spacingLeft=4;spacingRight=4;overflow=hidden;rotatable=0;points=[[0,0.5],[1,0.5]];portConstraint=eastwest;" parent="TAEGh7wm9ALzpoJDGOAz-5" vertex="1">
          <mxGeometry y="26" width="240" height="84" as="geometry" />
        </mxCell>
        <mxCell id="TAEGh7wm9ALzpoJDGOAz-7" value="" style="line;strokeWidth=1;fillColor=none;align=left;verticalAlign=middle;spacingTop=-1;spacingLeft=3;spacingRight=3;rotatable=0;labelPosition=right;points=[];portConstraint=eastwest;" parent="TAEGh7wm9ALzpoJDGOAz-5" vertex="1">
          <mxGeometry y="110" width="240" height="8" as="geometry" />
        </mxCell>
        <mxCell id="TAEGh7wm9ALzpoJDGOAz-8" value="+ pagarCon(medio: MedioDePago): boolean" style="text;strokeColor=none;fillColor=none;align=left;verticalAlign=top;spacingLeft=4;spacingRight=4;overflow=hidden;rotatable=0;points=[[0,0.5],[1,0.5]];portConstraint=eastwest;" parent="TAEGh7wm9ALzpoJDGOAz-5" vertex="1">
          <mxGeometry y="118" width="240" height="102" as="geometry" />
        </mxCell>
        <mxCell id="TAEGh7wm9ALzpoJDGOAz-9" value="" style="endArrow=diamondThin;endFill=1;endSize=24;html=1;rounded=0;entryX=0.008;entryY=0.917;entryDx=0;entryDy=0;entryPerimeter=0;" parent="1" source="TAEGh7wm9ALzpoJDGOAz-2" target="TAEGh7wm9ALzpoJDGOAz-6" edge="1">
          <mxGeometry width="160" relative="1" as="geometry">
            <mxPoint x="210" y="240" as="sourcePoint" />
            <mxPoint x="370" y="240" as="targetPoint" />
          </mxGeometry>
        </mxCell>
        <mxCell id="TAEGh7wm9ALzpoJDGOAz-10" value="cliente" style="text;html=1;align=center;verticalAlign=middle;resizable=0;points=[];autosize=1;strokeColor=none;fillColor=none;" parent="1" vertex="1">
          <mxGeometry x="300" y="150" width="50" height="20" as="geometry" />
        </mxCell>
        <mxCell id="TAEGh7wm9ALzpoJDGOAz-11" value="DebitoGateway" style="swimlane;fontStyle=1;align=center;verticalAlign=top;childLayout=stackLayout;horizontal=1;startSize=26;horizontalStack=0;resizeParent=1;resizeParentMax=0;resizeLast=0;collapsible=1;marginBottom=0;" parent="1" vertex="1">
          <mxGeometry x="10" y="680" width="430" height="80" as="geometry" />
        </mxCell>
        <mxCell id="TAEGh7wm9ALzpoJDGOAz-13" value="" style="line;strokeWidth=1;fillColor=none;align=left;verticalAlign=middle;spacingTop=-1;spacingLeft=3;spacingRight=3;rotatable=0;labelPosition=right;points=[];portConstraint=eastwest;" parent="TAEGh7wm9ALzpoJDGOAz-11" vertex="1">
          <mxGeometry y="26" width="430" height="8" as="geometry" />
        </mxCell>
        <mxCell id="TAEGh7wm9ALzpoJDGOAz-14" value="- autorizarMontoConCBU(unMonto: real, cbu: String): &lt;String&gt;&#xa;+ pagarMontoConCBU(unMonto: real, cbu:String): boolean" style="text;strokeColor=none;fillColor=none;align=left;verticalAlign=top;spacingLeft=4;spacingRight=4;overflow=hidden;rotatable=0;points=[[0,0.5],[1,0.5]];portConstraint=eastwest;" parent="TAEGh7wm9ALzpoJDGOAz-11" vertex="1">
          <mxGeometry y="34" width="430" height="46" as="geometry" />
        </mxCell>
        <mxCell id="TAEGh7wm9ALzpoJDGOAz-15" value="DineroMailGateway" style="swimlane;fontStyle=1;align=center;verticalAlign=top;childLayout=stackLayout;horizontal=1;startSize=26;horizontalStack=0;resizeParent=1;resizeParentMax=0;resizeLast=0;collapsible=1;marginBottom=0;" parent="1" vertex="1">
          <mxGeometry x="570" y="680" width="430" height="70" as="geometry" />
        </mxCell>
        <mxCell id="TAEGh7wm9ALzpoJDGOAz-16" value="" style="line;strokeWidth=1;fillColor=none;align=left;verticalAlign=middle;spacingTop=-1;spacingLeft=3;spacingRight=3;rotatable=0;labelPosition=right;points=[];portConstraint=eastwest;" parent="TAEGh7wm9ALzpoJDGOAz-15" vertex="1">
          <mxGeometry y="26" width="430" height="8" as="geometry" />
        </mxCell>
        <mxCell id="TAEGh7wm9ALzpoJDGOAz-17" value="+ realizarPagoParaEmail(unEmail: String, unMonto:real): boolean" style="text;strokeColor=none;fillColor=none;align=left;verticalAlign=top;spacingLeft=4;spacingRight=4;overflow=hidden;rotatable=0;points=[[0,0.5],[1,0.5]];portConstraint=eastwest;" parent="TAEGh7wm9ALzpoJDGOAz-15" vertex="1">
          <mxGeometry y="34" width="430" height="36" as="geometry" />
        </mxCell>
        <mxCell id="TAEGh7wm9ALzpoJDGOAz-18" value="MedioDePago&#xa;&lt;&lt;interface&gt;&gt;" style="swimlane;fontStyle=1;align=center;verticalAlign=top;childLayout=stackLayout;horizontal=1;startSize=50;horizontalStack=0;resizeParent=1;resizeParentMax=0;resizeLast=0;collapsible=1;marginBottom=0;" parent="1" vertex="1">
          <mxGeometry x="430" y="350" width="190" height="84" as="geometry" />
        </mxCell>
        <mxCell id="TAEGh7wm9ALzpoJDGOAz-20" value="" style="line;strokeWidth=1;fillColor=none;align=left;verticalAlign=middle;spacingTop=-1;spacingLeft=3;spacingRight=3;rotatable=0;labelPosition=right;points=[];portConstraint=eastwest;" parent="TAEGh7wm9ALzpoJDGOAz-18" vertex="1">
          <mxGeometry y="50" width="190" height="8" as="geometry" />
        </mxCell>
        <mxCell id="TAEGh7wm9ALzpoJDGOAz-21" value="+pagar(pedido: Pedido): boolean" style="text;strokeColor=none;fillColor=none;align=left;verticalAlign=top;spacingLeft=4;spacingRight=4;overflow=hidden;rotatable=0;points=[[0,0.5],[1,0.5]];portConstraint=eastwest;" parent="TAEGh7wm9ALzpoJDGOAz-18" vertex="1">
          <mxGeometry y="58" width="190" height="26" as="geometry" />
        </mxCell>
        <mxCell id="TAEGh7wm9ALzpoJDGOAz-28" value="DebitoGatewayAdaptee" style="swimlane;fontStyle=1;align=center;verticalAlign=top;childLayout=stackLayout;horizontal=1;startSize=26;horizontalStack=0;resizeParent=1;resizeParentMax=0;resizeLast=0;collapsible=1;marginBottom=0;" parent="1" vertex="1">
          <mxGeometry x="170" y="530" width="160" height="86" as="geometry" />
        </mxCell>
        <mxCell id="TAEGh7wm9ALzpoJDGOAz-29" value="- adaptee: DebitoGateway" style="text;strokeColor=none;fillColor=none;align=left;verticalAlign=top;spacingLeft=4;spacingRight=4;overflow=hidden;rotatable=0;points=[[0,0.5],[1,0.5]];portConstraint=eastwest;" parent="TAEGh7wm9ALzpoJDGOAz-28" vertex="1">
          <mxGeometry y="26" width="160" height="26" as="geometry" />
        </mxCell>
        <mxCell id="TAEGh7wm9ALzpoJDGOAz-30" value="" style="line;strokeWidth=1;fillColor=none;align=left;verticalAlign=middle;spacingTop=-1;spacingLeft=3;spacingRight=3;rotatable=0;labelPosition=right;points=[];portConstraint=eastwest;" parent="TAEGh7wm9ALzpoJDGOAz-28" vertex="1">
          <mxGeometry y="52" width="160" height="8" as="geometry" />
        </mxCell>
        <mxCell id="TAEGh7wm9ALzpoJDGOAz-31" value="+ pagar(pedido: Pedido): boolean" style="text;strokeColor=none;fillColor=none;align=left;verticalAlign=top;spacingLeft=4;spacingRight=4;overflow=hidden;rotatable=0;points=[[0,0.5],[1,0.5]];portConstraint=eastwest;" parent="TAEGh7wm9ALzpoJDGOAz-28" vertex="1">
          <mxGeometry y="60" width="160" height="26" as="geometry" />
        </mxCell>
        <mxCell id="TAEGh7wm9ALzpoJDGOAz-32" value="DineroMailGatewayAdaptee" style="swimlane;fontStyle=1;align=center;verticalAlign=top;childLayout=stackLayout;horizontal=1;startSize=26;horizontalStack=0;resizeParent=1;resizeParentMax=0;resizeLast=0;collapsible=1;marginBottom=0;" parent="1" vertex="1">
          <mxGeometry x="670" y="520" width="160" height="86" as="geometry" />
        </mxCell>
        <mxCell id="TAEGh7wm9ALzpoJDGOAz-33" value="- adaptee: DebitoGateway" style="text;strokeColor=none;fillColor=none;align=left;verticalAlign=top;spacingLeft=4;spacingRight=4;overflow=hidden;rotatable=0;points=[[0,0.5],[1,0.5]];portConstraint=eastwest;" parent="TAEGh7wm9ALzpoJDGOAz-32" vertex="1">
          <mxGeometry y="26" width="160" height="26" as="geometry" />
        </mxCell>
        <mxCell id="TAEGh7wm9ALzpoJDGOAz-34" value="" style="line;strokeWidth=1;fillColor=none;align=left;verticalAlign=middle;spacingTop=-1;spacingLeft=3;spacingRight=3;rotatable=0;labelPosition=right;points=[];portConstraint=eastwest;" parent="TAEGh7wm9ALzpoJDGOAz-32" vertex="1">
          <mxGeometry y="52" width="160" height="8" as="geometry" />
        </mxCell>
        <mxCell id="TAEGh7wm9ALzpoJDGOAz-35" value="+ pagar(pedido: Pedido): boolean" style="text;strokeColor=none;fillColor=none;align=left;verticalAlign=top;spacingLeft=4;spacingRight=4;overflow=hidden;rotatable=0;points=[[0,0.5],[1,0.5]];portConstraint=eastwest;" parent="TAEGh7wm9ALzpoJDGOAz-32" vertex="1">
          <mxGeometry y="60" width="160" height="26" as="geometry" />
        </mxCell>
        <mxCell id="TAEGh7wm9ALzpoJDGOAz-36" value="" style="endArrow=block;endSize=16;endFill=0;html=1;rounded=0;exitX=0.5;exitY=0;exitDx=0;exitDy=0;entryX=0.316;entryY=1.077;entryDx=0;entryDy=0;entryPerimeter=0;" parent="1" source="TAEGh7wm9ALzpoJDGOAz-28" target="TAEGh7wm9ALzpoJDGOAz-21" edge="1">
          <mxGeometry width="160" relative="1" as="geometry">
            <mxPoint x="440" y="440" as="sourcePoint" />
            <mxPoint x="600" y="440" as="targetPoint" />
          </mxGeometry>
        </mxCell>
        <mxCell id="TAEGh7wm9ALzpoJDGOAz-37" value="" style="endArrow=block;endSize=16;endFill=0;html=1;rounded=0;entryX=0.537;entryY=1.077;entryDx=0;entryDy=0;entryPerimeter=0;" parent="1" source="TAEGh7wm9ALzpoJDGOAz-32" target="TAEGh7wm9ALzpoJDGOAz-21" edge="1">
          <mxGeometry width="160" relative="1" as="geometry">
            <mxPoint x="440" y="440" as="sourcePoint" />
            <mxPoint x="600" y="440" as="targetPoint" />
          </mxGeometry>
        </mxCell>
        <mxCell id="TAEGh7wm9ALzpoJDGOAz-38" value="" style="endArrow=open;endFill=1;endSize=12;html=1;rounded=0;entryX=0.5;entryY=0;entryDx=0;entryDy=0;" parent="1" source="TAEGh7wm9ALzpoJDGOAz-8" target="TAEGh7wm9ALzpoJDGOAz-18" edge="1">
          <mxGeometry width="160" relative="1" as="geometry">
            <mxPoint x="440" y="460" as="sourcePoint" />
            <mxPoint x="600" y="460" as="targetPoint" />
          </mxGeometry>
        </mxCell>
        <mxCell id="TAEGh7wm9ALzpoJDGOAz-39" value="" style="endArrow=open;endFill=1;endSize=12;html=1;rounded=0;exitX=0.438;exitY=1.154;exitDx=0;exitDy=0;exitPerimeter=0;" parent="1" source="TAEGh7wm9ALzpoJDGOAz-31" target="TAEGh7wm9ALzpoJDGOAz-11" edge="1">
          <mxGeometry width="160" relative="1" as="geometry">
            <mxPoint x="440" y="460" as="sourcePoint" />
            <mxPoint x="600" y="460" as="targetPoint" />
          </mxGeometry>
        </mxCell>
        <mxCell id="TAEGh7wm9ALzpoJDGOAz-40" value="" style="endArrow=open;endFill=1;endSize=12;html=1;rounded=0;exitX=0.488;exitY=1.077;exitDx=0;exitDy=0;exitPerimeter=0;" parent="1" source="TAEGh7wm9ALzpoJDGOAz-35" target="TAEGh7wm9ALzpoJDGOAz-15" edge="1">
          <mxGeometry width="160" relative="1" as="geometry">
            <mxPoint x="250.08000000000004" y="630.0039999999999" as="sourcePoint" />
            <mxPoint x="241.03224128965155" y="690" as="targetPoint" />
          </mxGeometry>
        </mxCell>
      </root>
    </mxGraphModel>
  </diagram>
</mxfile>
